# xmcd CD database file generated by Grip 3.2.0
# 
# Track frame offsets:
#       182
#       11175
#       21955
#       35535
#       47152
#       59392
#       71295
#       83380
#       95635
#       107785
#       120440
#       131557
#       150797
#       162385
#       172542
#       183015
# 
# Disc length: 2580 seconds
# 
# Revision: 2
# Processed by: cddbd v1.5.1PL2 Copyright (c) Steve Scherf et al.
# Submitted via: Grip 3.2.0
# 
DISCID=b90a1210
DTITLE=Chuck Berry - Original Chess Classics
DYEAR=1900
DGENRE=Blues
TTITLE0=Roll Over Beethoven
TTITLE1=Maybelline
TTITLE2=Sweet Little Sixteen
TTITLE3=Rock and Roll Music
TTITLE4=No Particular Place To Go
TTITLE5=Johnny B. Goode
TTITLE6=Little Queenie
TTITLE7=You Can Never Tell
TTITLE8=School Days
TTITLE9=Carol
TTITLE10=Back In The USA
TTITLE11=My Ding-A-Ling
TTITLE12=Nadine
TTITLE13=Memphis
TTITLE14=Brown Eyed Handsome Man
TTITLE15=Promised Land
EXTD=
EXTT0=
EXTT1=
EXTT2=
EXTT3=
EXTT4=
EXTT5=
EXTT6=
EXTT7=
EXTT8=
EXTT9=
EXTT10=
EXTT11=
EXTT12=
EXTT13=
EXTT14=
EXTT15=
PLAYORDER=
